<svg width="28" height="14" viewBox="0 0 28 14" fill="none" xmlns="http://www.w3.org/2000/svg">
<g clip-path="url(#clip0_1_535)">
<g clip-path="url(#clip1_1_535)">
<path fill-rule="evenodd" clip-rule="evenodd" d="M5 0H30.6503V1.03847H5V0ZM5 2.07694H30.6503V3.11542H5V2.07694ZM5 4.15389H30.6503V5.19236H5V4.15389ZM5 6.23083H30.6503V7.2693H5V6.23083ZM5 8.30777H30.6503V9.34625H5V8.30777ZM5 10.3847H30.6503V11.4232H5V10.3847ZM5 12.4617H30.6503V13.5001H5V12.4617Z" fill="#BD3D44"/>
<path fill-rule="evenodd" clip-rule="evenodd" d="M5 1.03857H30.6503V2.07705H5V1.03857ZM5 3.11552H30.6503V4.15399H5V3.11552ZM5 5.19246H30.6503V6.23093H5V5.19246ZM5 7.2694H30.6503V8.30788H5V7.2694ZM5 9.34635H30.6503V10.3848H5V9.34635ZM5 11.4233H30.6503V12.4618H5V11.4233Z" fill="white"/>
<path fill-rule="evenodd" clip-rule="evenodd" d="M5 0H15.26V7.26917H5V0Z" fill="#192F5D"/>
<path fill-rule="evenodd" clip-rule="evenodd" d="M5.85505 0.311035L5.94839 0.598332H6.2505L6.00608 0.775915L6.09945 1.06321L5.85502 0.885655L5.61065 1.06321L5.70399 0.775915L5.45959 0.598332H5.76168L5.85505 0.311035ZM7.56504 0.311035L7.65841 0.598332H7.96052L7.7161 0.775915L7.80946 1.06321L7.56504 0.885655L7.32067 1.06321L7.41401 0.775915L7.16961 0.598332H7.4717L7.56504 0.311035ZM9.27511 0.311035L9.36845 0.598332H9.67057L9.42614 0.775915L9.51951 1.06321L9.27511 0.885655L9.03071 1.06321L9.12405 0.775915L8.87966 0.598332H9.18177L9.27511 0.311035ZM10.9851 0.311035L11.0784 0.598332H11.3805L11.1361 0.775915L11.2294 1.06321L10.9851 0.885655L10.7407 1.06321L10.834 0.775915L10.5896 0.598332H10.8917L10.9851 0.311035ZM12.6951 0.311035L12.7885 0.598332H13.0906L12.8462 0.775915L12.9395 1.06321L12.6951 0.885655L12.4507 1.06321L12.5441 0.775915L12.2997 0.598332H12.6018L12.6951 0.311035ZM14.4052 0.311035L14.4985 0.598332H14.8006L14.5562 0.775915L14.6496 1.06321L14.4052 0.885655L14.1607 1.06321L14.2541 0.775915L14.0097 0.598332H14.3118L14.4052 0.311035ZM6.71009 1.03798L6.80342 1.32528H7.10554L6.86112 1.50283L6.95451 1.79016L6.71009 1.6126L6.46569 1.79016L6.55903 1.50283L6.31463 1.32528H6.61675L6.71009 1.03798ZM8.42005 1.03798L8.51339 1.32528H8.81548L8.57108 1.50283L8.66442 1.79016L8.42005 1.6126L8.17563 1.79016L8.26899 1.50283L8.02457 1.32528H8.32668L8.42005 1.03798ZM10.1301 1.03798L10.2234 1.32528H10.5255L10.2811 1.50283L10.3745 1.79016L10.1301 1.6126L9.8857 1.79016L9.97904 1.50283L9.73464 1.32528H10.0367L10.1301 1.03798ZM11.8401 1.03798L11.9335 1.32528H12.2356L11.9912 1.50283L12.0845 1.79016L11.8401 1.6126L11.5957 1.79016L11.6891 1.50283L11.4447 1.32528H11.7468L11.8401 1.03798ZM13.5501 1.03798L13.6434 1.32528H13.9455L13.7011 1.50283L13.7945 1.79016L13.5501 1.6126L13.3057 1.79016L13.399 1.50283L13.1546 1.32528H13.4567L13.5501 1.03798ZM5.85505 1.7649L5.94839 2.05219H6.2505L6.00608 2.22978L6.09945 2.51707L5.85502 2.33952L5.61065 2.51707L5.70399 2.22978L5.45959 2.05219H5.76168L5.85505 1.7649ZM7.56504 1.7649L7.65841 2.05219H7.96052L7.7161 2.22978L7.80946 2.51707L7.56504 2.33952L7.32067 2.51707L7.41401 2.22978L7.16961 2.05219H7.4717L7.56504 1.7649ZM9.27511 1.7649L9.36845 2.05219H9.67057L9.42614 2.22978L9.51951 2.51707L9.27511 2.33952L9.03071 2.51707L9.12405 2.22978L8.87966 2.05219H9.18177L9.27511 1.7649ZM10.9851 1.7649L11.0784 2.05219H11.3805L11.1361 2.22978L11.2294 2.51707L10.9851 2.33952L10.7407 2.51707L10.834 2.22978L10.5896 2.05219H10.8917L10.9851 1.7649ZM12.6951 1.7649L12.7885 2.05219H13.0906L12.8462 2.22978L12.9395 2.51707L12.6951 2.33952L12.4507 2.51707L12.5441 2.22978L12.2997 2.05219H12.6018L12.6951 1.7649ZM14.4052 1.7649L14.4985 2.05219H14.8006L14.5562 2.22978L14.6496 2.51707L14.4052 2.33952L14.1607 2.51707L14.2541 2.22978L14.0097 2.05219H14.3118L14.4052 1.7649ZM6.71009 2.49181L6.80342 2.77914H7.10554L6.86112 2.95669L6.95451 3.24402L6.71009 3.06646L6.46569 3.24402L6.55903 2.95669L6.31463 2.77914H6.61675L6.71009 2.49181ZM8.42005 2.49181L8.51339 2.77914H8.81548L8.57108 2.95669L8.66442 3.24402L8.42005 3.06646L8.17563 3.24402L8.26899 2.95669L8.02457 2.77914H8.32668L8.42005 2.49181ZM10.1301 2.49181L10.2234 2.77914H10.5255L10.2811 2.95669L10.3745 3.24402L10.1301 3.06646L9.8857 3.24402L9.97904 2.95669L9.73464 2.77914H10.0367L10.1301 2.49181ZM11.8401 2.49181L11.9335 2.77914H12.2356L11.9912 2.95669L12.0845 3.24402L11.8401 3.06646L11.5957 3.24402L11.6891 2.95669L11.4447 2.77914H11.7468L11.8401 2.49181ZM13.5501 2.49181L13.6434 2.77914H13.9455L13.7011 2.95669L13.7945 3.24402L13.5501 3.06646L13.3057 3.24402L13.399 2.95669L13.1546 2.77914H13.4567L13.5501 2.49181ZM5.85505 3.21876L5.94839 3.50605H6.2505L6.00608 3.68364L6.09945 3.97093L5.85502 3.79338L5.61065 3.97093L5.70399 3.68364L5.45959 3.50605H5.76168L5.85505 3.21876ZM7.56504 3.21876L7.65841 3.50605H7.96052L7.7161 3.68364L7.80946 3.97093L7.56504 3.79338L7.32067 3.97093L7.41401 3.68364L7.16961 3.50605H7.4717L7.56504 3.21876ZM9.27511 3.21876L9.36845 3.50605H9.67057L9.42614 3.68364L9.51951 3.97093L9.27511 3.79338L9.03071 3.97093L9.12405 3.68364L8.87966 3.50605H9.18177L9.27511 3.21876ZM10.9851 3.21876L11.0784 3.50605H11.3805L11.1361 3.68364L11.2294 3.97093L10.9851 3.79338L10.7407 3.97093L10.834 3.68364L10.5896 3.50605H10.8917L10.9851 3.21876ZM12.6951 3.21876L12.7885 3.50605H13.0906L12.8462 3.68364L12.9395 3.97093L12.6951 3.79338L12.4507 3.97093L12.5441 3.68364L12.2997 3.50605H12.6018L12.6951 3.21876ZM14.4052 3.21876L14.4985 3.50605H14.8006L14.5562 3.68364L14.6496 3.97093L14.4052 3.79338L14.1607 3.97093L14.2541 3.68364L14.0097 3.50605H14.3118L14.4052 3.21876ZM6.71009 3.94567L6.80342 4.233H7.10554L6.86112 4.41055L6.95451 4.69788L6.71009 4.52032L6.46569 4.69788L6.55903 4.41055L6.31463 4.233H6.61675L6.71009 3.94567ZM8.42005 3.94567L8.51339 4.233H8.81548L8.57108 4.41055L8.66442 4.69788L8.42005 4.52032L8.17563 4.69788L8.26899 4.41055L8.02457 4.233H8.32668L8.42005 3.94567ZM10.1301 3.94567L10.2234 4.233H10.5255L10.2811 4.41055L10.3745 4.69788L10.1301 4.52032L9.8857 4.69788L9.97904 4.41055L9.73464 4.233H10.0367L10.1301 3.94567ZM11.8401 3.94567L11.9335 4.233H12.2356L11.9912 4.41055L12.0845 4.69788L11.8401 4.52032L11.5957 4.69788L11.6891 4.41055L11.4447 4.233H11.7468L11.8401 3.94567ZM13.5501 3.94567L13.6434 4.233H13.9455L13.7011 4.41055L13.7945 4.69788L13.5501 4.52032L13.3057 4.69788L13.399 4.41055L13.1546 4.233H13.4567L13.5501 3.94567Z" fill="white"/>
<path fill-rule="evenodd" clip-rule="evenodd" d="M5.85505 4.67285L5.94839 4.96015H6.2505L6.00608 5.13773L6.09945 5.42503L5.85502 5.24747L5.61065 5.42503L5.70399 5.13773L5.45959 4.96015H5.76168L5.85505 4.67285ZM7.56504 4.67285L7.65841 4.96015H7.96052L7.7161 5.13773L7.80946 5.42503L7.56504 5.24747L7.32067 5.42503L7.41401 5.13773L7.16961 4.96015H7.4717L7.56504 4.67285ZM9.27511 4.67285L9.36845 4.96015H9.67057L9.42614 5.13773L9.51951 5.42503L9.27511 5.24747L9.03071 5.42503L9.12405 5.13773L8.87966 4.96015H9.18177L9.27511 4.67285ZM10.9851 4.67285L11.0784 4.96015H11.3805L11.1361 5.13773L11.2294 5.42503L10.9851 5.24747L10.7407 5.42503L10.834 5.13773L10.5896 4.96015H10.8917L10.9851 4.67285ZM12.6951 4.67285L12.7885 4.96015H13.0906L12.8462 5.13773L12.9395 5.42503L12.6951 5.24747L12.4507 5.42503L12.5441 5.13773L12.2997 4.96015H12.6018L12.6951 4.67285ZM14.4052 4.67285L14.4985 4.96015H14.8006L14.5562 5.13773L14.6496 5.42503L14.4052 5.24747L14.1607 5.42503L14.2541 5.13773L14.0097 4.96015H14.3118L14.4052 4.67285ZM6.71009 5.39977L6.80342 5.68709H7.10554L6.86112 5.86465L6.95451 6.15197L6.71009 5.97442L6.46569 6.15197L6.55903 5.86465L6.31463 5.68709H6.61675L6.71009 5.39977ZM8.42005 5.39977L8.51339 5.68709H8.81548L8.57108 5.86465L8.66442 6.15197L8.42005 5.97442L8.17563 6.15197L8.26899 5.86465L8.02457 5.68709H8.32668L8.42005 5.39977ZM10.1301 5.39977L10.2234 5.68709H10.5255L10.2811 5.86465L10.3745 6.15197L10.1301 5.97442L9.8857 6.15197L9.97904 5.86465L9.73464 5.68709H10.0367L10.1301 5.39977ZM11.8401 5.39977L11.9335 5.68709H12.2356L11.9912 5.86465L12.0845 6.15197L11.8401 5.97442L11.5957 6.15197L11.6891 5.86465L11.4447 5.68709H11.7468L11.8401 5.39977ZM13.5501 5.39977L13.6434 5.68709H13.9455L13.7011 5.86465L13.7945 6.15197L13.5501 5.97442L13.3057 6.15197L13.399 5.86465L13.1546 5.68709H13.4567L13.5501 5.39977Z" fill="white"/>
<path fill-rule="evenodd" clip-rule="evenodd" d="M5.85505 6.12646L5.94839 6.41376H6.2505L6.00608 6.59134L6.09945 6.87864L5.85502 6.70108L5.61065 6.87864L5.70399 6.59134L5.45959 6.41376H5.76168L5.85505 6.12646ZM7.56504 6.12646L7.65841 6.41376H7.96052L7.7161 6.59134L7.80946 6.87864L7.56504 6.70108L7.32067 6.87864L7.41401 6.59134L7.16961 6.41376H7.4717L7.56504 6.12646ZM9.27511 6.12646L9.36845 6.41376H9.67057L9.42614 6.59134L9.51951 6.87864L9.27511 6.70108L9.03071 6.87864L9.12405 6.59134L8.87966 6.41376H9.18177L9.27511 6.12646ZM10.9851 6.12646L11.0784 6.41376H11.3805L11.1361 6.59134L11.2294 6.87864L10.9851 6.70108L10.7407 6.87864L10.834 6.59134L10.5896 6.41376H10.8917L10.9851 6.12646ZM12.6951 6.12646L12.7885 6.41376H13.0906L12.8462 6.59134L12.9395 6.87864L12.6951 6.70108L12.4507 6.87864L12.5441 6.59134L12.2997 6.41376H12.6018L12.6951 6.12646ZM14.4052 6.12646L14.4985 6.41376H14.8006L14.5562 6.59134L14.6496 6.87864L14.4052 6.70108L14.1607 6.87864L14.2541 6.59134L14.0097 6.41376H14.3118L14.4052 6.12646Z" fill="white"/>
</g>
</g>
<defs>
<clipPath id="clip0_1_535">
<rect width="28" height="13.5" fill="white"/>
</clipPath>
<clipPath id="clip1_1_535">
<rect width="18" height="13.5" fill="white" transform="translate(5)"/>
</clipPath>
</defs>
</svg>
